<svg width="19" height="21" viewBox="0 0 19 21" fill="none" xmlns="http://www.w3.org/2000/svg">
<path fill-rule="evenodd" clip-rule="evenodd" d="M3.48797 16.2511C3.97952 16.6278 4.63867 17.0406 5.57718 17.6265L6.64724 18.2944C7.43935 18.7891 7.98676 19.1298 8.44149 19.3524C8.88138 19.5672 9.17697 19.6421 9.45628 19.6413C9.73559 19.6419 10.0311 19.5668 10.4709 19.3517C10.9255 19.1289 11.472 18.7886 12.2645 18.2927L13.3334 17.6248C14.2723 17.0376 14.9312 16.6245 15.4225 16.2474C15.9018 15.881 16.1747 15.5811 16.3598 15.2459C16.5457 14.9114 16.6545 14.521 16.7116 13.9207C16.7701 13.3034 16.7712 12.5255 16.7709 11.4182L16.7701 8.83019C16.7695 6.90828 16.7677 5.54215 16.6274 4.50557C16.4913 3.49021 16.2344 2.9041 15.8065 2.47643C15.3786 2.04876 14.7923 1.79226 13.7761 1.6561C12.7402 1.51711 11.3726 1.51612 9.45073 1.51671C7.5274 1.51729 6.16127 1.51913 5.1247 1.65804C4.11004 1.79623 3.52393 2.05168 3.09555 2.48032C2.66789 2.90825 2.41209 3.49381 2.27593 4.50996C2.13624 5.54662 2.13524 6.91417 2.13583 8.83609L2.13662 11.4241C2.13696 12.53 2.13862 13.3078 2.19679 13.9244C2.25495 14.5254 2.36397 14.9157 2.55004 15.2501C2.7354 15.5852 3.00914 15.8843 3.48726 16.2504M2.57475 17.4407C2.00045 17.0011 1.55766 16.5543 1.23787 15.9774C0.917375 15.3998 0.772937 14.7875 0.703421 14.0677C0.636739 13.3705 0.63648 12.522 0.636155 11.4599L0.635334 8.77856C0.634768 6.92594 0.634319 5.45799 0.789531 4.3096C0.946854 3.12798 1.28102 2.17257 2.03386 1.41927C2.78741 0.665267 3.74261 0.330512 4.92342 0.171759C6.07243 0.0165505 7.53967 0.0153949 9.393 0.0155358L9.50614 0.0155012C11.3588 0.0149343 12.8267 0.0144858 13.9751 0.169698C15.1567 0.327021 16.1128 0.661898 16.8661 1.41474C17.6194 2.16757 17.9542 3.12277 18.1136 4.3043C18.2681 5.45259 18.2693 6.91984 18.2699 8.77387L18.2693 11.4552C18.2696 12.5159 18.2699 13.3658 18.2043 14.0623C18.1345 14.7829 17.9905 15.3953 17.671 15.9724C17.3509 16.5502 16.9084 16.9972 16.3343 17.4372C15.7794 17.8638 15.0583 18.3137 14.159 18.8769L13.0257 19.5864C12.2742 20.0555 11.662 20.4389 11.1289 20.6993C10.5711 20.9717 10.0436 21.1416 9.45533 21.1417C8.86701 21.1419 8.33804 20.9724 7.78217 20.6996C7.24823 20.4403 6.63576 20.0572 5.88467 19.5879L4.75096 18.879C3.84993 18.3179 3.12996 17.867 2.57404 17.4414M8.39737 13.8115C8.39747 14.1431 8.52928 14.461 8.76381 14.6954C8.99833 14.9298 9.31636 15.0614 9.64792 15.0613C9.97948 15.0612 10.2974 14.9294 10.5318 14.6948C10.7662 14.4603 10.8978 14.1423 10.8977 13.8107C10.8977 13.6466 10.8653 13.484 10.8024 13.3323C10.7395 13.1807 10.6474 13.0429 10.5313 12.9268C10.4151 12.8108 10.2773 12.7187 10.1256 12.656C9.9739 12.5932 9.81133 12.5609 9.64715 12.5609C9.48298 12.561 9.32042 12.5934 9.16877 12.6563C9.01711 12.7191 8.87932 12.8113 8.76327 12.9274C8.64721 13.0435 8.55517 13.1814 8.49239 13.333C8.42961 13.4847 8.39732 13.6473 8.39737 13.8115ZM9.64838 16.5603C9.2857 16.5629 8.9261 16.4937 8.59029 16.3567C8.25448 16.2196 7.94908 16.0176 7.69169 15.7621C7.4343 15.5065 7.22999 15.2026 7.09053 14.8678C6.95107 14.533 6.87922 14.1739 6.87911 13.8113C6.879 13.4486 6.95063 13.0894 7.08989 12.7546C7.22914 12.4197 7.43326 12.1156 7.6905 11.86C7.94773 11.6043 8.253 11.402 8.58873 11.2648C8.92446 11.1276 9.28402 11.0581 9.6467 11.0605C10.3762 11.0602 11.0759 11.3498 11.5919 11.8655C12.1079 12.3812 12.398 13.0808 12.3982 13.8103C12.3984 14.5398 12.1088 15.2395 11.5931 15.7555C11.0774 16.2715 10.3779 16.5615 9.64838 16.5618M3.7525 4.93519C3.75256 4.73644 3.83151 4.54584 3.97201 4.40526C4.1125 4.26468 4.30305 4.18561 4.5018 4.18543L14.3723 4.1817C14.5665 4.1885 14.7505 4.27041 14.8855 4.41019C15.0205 4.54996 15.096 4.73668 15.0961 4.93101C15.0961 5.12534 15.0208 5.31211 14.8858 5.45197C14.7509 5.59183 14.567 5.67385 14.3728 5.68077L4.50297 5.6852C4.40444 5.68526 4.30686 5.66591 4.21581 5.62824C4.12476 5.59058 4.04202 5.53534 3.97233 5.46569C3.90264 5.39604 3.84735 5.31334 3.80963 5.22231C3.77191 5.13129 3.7525 5.03372 3.7525 4.93519Z" fill="#446BF2"/>
</svg>
